<svg width="64" height="64" viewBox="0 0 64 64" fill="none" xmlns="http://www.w3.org/2000/svg">
<rect x="0.000259399" width="64" height="64" rx="32" fill="#121C29"/>
<g clip-path="url(#clip0_4605_3160)">
<path d="M41.5786 35.8287L43.2205 34.1866C44.26 33.1473 44.2602 31.456 43.2207 30.4161C42.9109 30.1057 42.5291 29.8767 42.1095 29.7492C42.4441 29.2946 42.6253 28.7473 42.6253 28.1722C42.6253 27.46 42.3479 26.7904 41.8441 26.2869C41.3408 25.7834 40.6712 25.506 39.9589 25.506C39.929 25.506 39.8992 25.5065 39.8694 25.5074C39.8926 24.7957 39.6333 24.0761 39.0911 23.5338C38.549 22.9917 37.8285 22.7321 37.1178 22.7557C37.1188 22.7261 37.1193 22.6961 37.1193 22.6662C37.1193 21.9539 36.8419 21.2845 36.3384 20.7809C35.2991 19.7416 33.6077 19.7414 32.5678 20.7809L32.0002 21.3486L31.4328 20.7811C30.9292 20.2774 30.2596 20 29.5474 20C28.8352 20 28.1658 20.2774 27.6623 20.7807C27.1199 21.3231 26.8612 22.0429 26.8848 22.7552C26.8548 22.7539 26.8248 22.7531 26.7947 22.753C26.0826 22.753 25.413 23.0302 24.9091 23.5338C24.3669 24.0763 24.1082 24.7961 24.1319 25.5081C24.1016 25.5071 24.0716 25.506 24.0414 25.506C23.3293 25.506 22.6597 25.7834 22.1565 26.2867C21.6528 26.7903 21.3754 27.4599 21.3754 28.1722C21.3754 28.7471 21.5563 29.2944 21.8912 29.7489C21.4759 29.8741 21.0953 30.1008 20.7797 30.4161C19.7428 31.4534 19.7404 33.1395 20.7728 34.1793C20.7753 34.182 20.7779 34.1846 20.7805 34.1873L22.4248 35.8312C22.427 35.8336 22.4293 35.836 22.4317 35.8384C22.5296 35.9362 22.6348 36.0263 22.7465 36.108L22.2601 36.5943C21.7871 37.0672 21.5462 37.7116 21.5819 38.4087C21.6159 39.0779 21.9039 39.7155 22.3925 40.204L25.1737 42.9853C25.6897 43.5012 26.3671 43.7592 27.0448 43.7592C27.7225 43.7592 28.4001 43.5012 28.916 42.9853L30.2087 41.6924C30.7976 41.819 31.3982 41.883 32.0006 41.8832C32.6013 41.8832 33.2023 41.8193 33.7919 41.6928L35.0842 42.9853C35.6002 43.5012 36.2777 43.7592 36.9554 43.7592C37.6329 43.759 38.3107 43.5012 38.8265 42.9853L41.6079 40.204C42.6395 39.1724 42.7567 37.6109 41.869 36.723L41.2766 36.1306L41.5689 35.8382C41.5722 35.8351 41.5753 35.832 41.5786 35.8287H41.5786ZM28.6798 21.7984C28.9116 21.5667 29.2198 21.439 29.5475 21.439C29.8753 21.439 30.1835 21.5667 30.4153 21.7984L32.6175 24.0006C33.0959 24.4793 33.0959 25.2579 32.6175 25.7363C32.3857 25.9681 32.0775 26.0958 31.7499 26.0958H31.7497C31.422 26.0956 31.114 25.9681 30.8822 25.7363L30.8812 25.7354L28.6804 23.5345C28.6785 23.5326 28.6769 23.5308 28.6749 23.5292C28.2013 23.05 28.203 22.2751 28.6798 21.7984ZM25.9236 26.2836C25.4484 25.8048 25.4495 25.0286 25.9267 24.5515C26.1586 24.3196 26.467 24.192 26.7948 24.192C27.1221 24.192 27.4299 24.3194 27.6617 24.5511C27.6619 24.5511 27.6621 24.5513 27.6621 24.5515C27.6629 24.5521 27.6637 24.5529 27.6644 24.5537L29.8641 26.7533C29.8654 26.7548 29.867 26.7562 29.8685 26.7577L30.4151 27.3042C30.6469 27.5361 30.7747 27.8442 30.7747 28.1722C30.7747 28.4999 30.6471 28.8081 30.4153 29.0397C30.1835 29.2715 29.8753 29.3992 29.5475 29.3992C29.2198 29.3992 28.9116 29.2715 28.68 29.0397C28.6771 29.0369 28.6742 29.0341 28.6712 29.0313L28.1316 28.4915C28.1308 28.4908 28.1301 28.4901 28.1294 28.4891L25.9268 26.287L25.9267 26.2867L25.9236 26.2836ZM23.1742 27.3042C23.4058 27.0726 23.7138 26.945 24.0415 26.945C24.3693 26.945 24.6774 27.0726 24.9093 27.3044L27.114 29.5092C27.5901 29.9878 27.5892 30.7646 27.1118 31.2423C26.88 31.4739 26.5716 31.6015 26.2439 31.6015C25.9161 31.6015 25.608 31.4739 25.3763 31.2421C25.3734 31.2393 25.3707 31.2364 25.3678 31.2337L23.181 29.0469L23.174 29.0397C22.9422 28.8079 22.8146 28.4999 22.8146 28.1722C22.8144 27.8444 22.9422 27.5362 23.1742 27.3042ZM21.8048 33.1766C21.802 33.1737 21.7993 33.1709 21.7965 33.1682C21.319 32.6897 21.3193 31.9119 21.7974 31.4338C22.0292 31.202 22.3374 31.0744 22.6652 31.0744C22.9929 31.0744 23.3013 31.202 23.5331 31.434L25.1847 33.0854C25.6632 33.5639 25.6632 34.3425 25.1849 34.8209C24.9531 35.0527 24.6449 35.1803 24.3173 35.1803H24.3172C24.2575 35.1803 24.1979 35.176 24.1388 35.1675C24.1344 35.1666 24.13 35.166 24.1256 35.1653C23.8718 35.1259 23.6369 35.0072 23.4545 34.8262C23.4527 34.8242 23.4507 34.8224 23.4489 34.8203L21.8048 33.1766ZM30.1698 40.2047C30.1635 40.2031 30.1575 40.2024 30.1515 40.2009C30.1372 40.1973 30.1228 40.1942 30.1083 40.1915C30.0976 40.1897 30.087 40.1885 30.0762 40.187C30.0643 40.1854 30.0523 40.1841 30.0403 40.1831C30.0277 40.182 30.0151 40.1814 30.0024 40.1813C29.9922 40.1809 29.9821 40.1807 29.9719 40.1809C29.9583 40.1811 29.9449 40.1818 29.9315 40.1829C29.9218 40.1837 29.9121 40.1844 29.9025 40.1855C29.8893 40.187 29.8762 40.189 29.8633 40.1912C29.853 40.1929 29.8428 40.1948 29.8327 40.197C29.8208 40.1996 29.8091 40.2023 29.7973 40.2057C29.7862 40.2086 29.775 40.2118 29.7638 40.2154C29.7534 40.2188 29.7433 40.2225 29.7331 40.2261C29.7212 40.2307 29.7093 40.2353 29.6977 40.2404C29.6765 40.2497 29.6556 40.26 29.6353 40.2712C29.6259 40.2763 29.6168 40.2818 29.6076 40.2875C29.5974 40.2939 29.587 40.3003 29.5769 40.3073C29.5666 40.3144 29.5565 40.3219 29.5467 40.3296C29.5384 40.3358 29.5304 40.3421 29.5223 40.3486C29.5106 40.3585 29.4994 40.3688 29.4884 40.3794C29.4842 40.3835 29.4797 40.3869 29.4755 40.3911L27.8987 41.9678C27.4279 42.4386 26.6622 42.4386 26.1914 41.9678L23.4102 39.1866C23.174 38.9504 23.035 38.6481 23.0191 38.3352C23.0047 38.0501 23.0964 37.7932 23.2778 37.6119L24.2714 36.6182C24.2865 36.6184 24.3018 36.6194 24.3172 36.6194H24.3173C25.0292 36.6194 25.6987 36.3419 26.2024 35.8384C26.973 35.0675 27.1718 33.9385 26.7993 32.9823C27.2996 32.8769 27.7593 32.6297 28.1296 32.2598C28.537 31.8529 28.8011 31.3245 28.8818 30.7543C29.0993 30.8101 29.323 30.8382 29.5475 30.8382H29.5477C30.2596 30.8382 30.929 30.561 31.4328 30.0574C31.9363 29.5539 32.2137 28.8842 32.2137 28.1721C32.2137 27.9449 32.1852 27.7221 32.1304 27.5075C32.6981 27.4269 33.2224 27.1666 33.635 26.7536C34.6745 25.7143 34.6745 24.023 33.6352 22.9834L33.0177 22.3659L33.5854 21.7984C34.064 21.32 34.8426 21.32 35.3208 21.7983C35.5526 22.0301 35.6803 22.3383 35.6803 22.666C35.6803 22.9938 35.5526 23.3019 35.3208 23.5338C35.2539 23.6005 35.2009 23.6798 35.1647 23.7671C35.1285 23.8545 35.11 23.9481 35.1101 24.0426C35.1101 24.2266 35.1802 24.4108 35.3208 24.5513C35.6019 24.8323 36.0573 24.8323 36.3384 24.5513C36.8166 24.073 37.5952 24.0728 38.0738 24.5513C38.5523 25.0299 38.5521 25.8085 38.0736 26.2869C38.0067 26.3536 37.9537 26.4329 37.9175 26.5202C37.8813 26.6075 37.8628 26.7011 37.8629 26.7956C37.8627 26.8901 37.8813 26.9837 37.9174 27.071C37.9536 27.1583 38.0067 27.2375 38.0736 27.3042C38.3547 27.5853 38.8101 27.5853 39.0911 27.3044C39.323 27.0726 39.6313 26.945 39.9591 26.9448C40.2868 26.9448 40.595 27.0724 40.8266 27.3042C41.0587 27.5363 41.1863 27.8444 41.1863 28.1722C41.1863 28.4955 41.0619 28.7998 40.836 29.0304C40.8327 29.0336 40.8294 29.0368 40.8263 29.0401L39.7945 30.0721C39.5376 30.3289 39.5125 30.7371 39.736 31.0235L39.7731 31.0709C39.9961 31.3567 40.3971 31.4318 40.7083 31.2463C41.1908 30.9588 41.8055 31.0359 42.2032 31.4334C42.6817 31.9121 42.6817 32.6906 42.2032 33.1691L40.5518 34.8203L40.5422 34.8302L36.9976 38.375C35.219 40.1534 32.6028 40.8546 30.1698 40.2047ZM40.8518 37.7405C41.1672 38.0562 41.0453 38.732 40.5907 39.1866L37.8093 41.9678C37.3385 42.4386 36.5727 42.4386 36.102 41.9678L35.3366 41.2025C36.3368 40.7756 37.246 40.1612 38.0151 39.3925L40.2592 37.1482L40.8518 37.7405Z" fill="#F2C922"/>
</g>
<defs>
<clipPath id="clip0_4605_3160">
<rect width="24" height="24" fill="white" transform="translate(20.0003 20)"/>
</clipPath>
</defs>
</svg>
