<svg width="64" height="64" viewBox="0 0 64 64" fill="none" xmlns="http://www.w3.org/2000/svg">
<rect x="0.000259399" width="64" height="64" rx="32" fill="#121C29"/>
<g clip-path="url(#clip0_4605_3224)">
<path d="M44.0003 32C44.0003 28.8071 42.7486 25.7971 40.4759 23.5244C38.2032 21.2517 35.1931 20 32.0003 20C28.8074 20 25.7973 21.2517 23.5246 23.5243C21.2519 25.7971 20.0003 28.8071 20.0003 32V38.9036C20.0003 40.9787 21.6654 42.6711 23.7296 42.7177C24.0663 43.4724 24.8233 44 25.7017 44H26.4269C27.6172 44 28.5856 43.0316 28.5856 41.8413V34.3873C28.5856 33.197 27.6172 32.2286 26.4269 32.2286H25.7017C24.8233 32.2286 24.0663 32.7562 23.7296 33.5109C22.8926 33.5298 22.1215 33.8188 21.5003 34.2949V32C21.5003 26.2103 26.2105 21.5 32.0003 21.5C37.79 21.5 42.5003 26.2103 42.5003 32V34.2949C41.879 33.8188 41.1079 33.5298 40.2709 33.5109C39.9342 32.7562 39.1772 32.2286 38.2989 32.2286H37.5736C36.3833 32.2286 35.4149 33.197 35.4149 34.3873V41.8413C35.4149 43.0317 36.3833 44 37.5736 44H38.2989C39.1772 44 39.9342 43.4724 40.2709 42.7177C42.3351 42.6711 44.0003 40.9788 44.0003 38.9036V32ZM25.0429 34.3873C25.0429 34.0241 25.3384 33.7286 25.7017 33.7286H26.4269C26.7902 33.7286 27.0856 34.0241 27.0856 34.3873V41.8413C27.0856 42.2045 26.7901 42.5 26.4269 42.5H25.7017C25.3384 42.5 25.0429 42.2045 25.0429 41.8413V34.3873ZM23.5429 35.0254V41.2032C22.3943 41.0673 21.5003 40.0882 21.5003 38.9036V37.325C21.5003 36.1404 22.3943 35.1613 23.5429 35.0254ZM38.9576 41.8413C38.9576 42.2045 38.6621 42.5 38.2989 42.5H37.5737C37.2104 42.5 36.9149 42.2045 36.9149 41.8413V34.3873C36.9149 34.0241 37.2104 33.7286 37.5737 33.7286H38.2989C38.6621 33.7286 38.9576 34.0241 38.9576 34.3873V41.8413ZM42.5003 38.9036C42.5003 40.0882 41.6062 41.0673 40.4576 41.2032V35.0254C41.6062 35.1613 42.5003 36.1404 42.5003 37.325V38.9036Z" fill="#F2C922"/>
</g>
<defs>
<clipPath id="clip0_4605_3224">
<rect width="24" height="24" fill="white" transform="translate(20.0003 20)"/>
</clipPath>
</defs>
</svg>
