<svg width="7" height="32" viewBox="0 0 7 32" fill="none" xmlns="http://www.w3.org/2000/svg">
<g filter="url(#filter0_f_4605_3162)">
<mask id="path-1-inside-1_4605_3162" fill="white">
<path d="M5.85206 31.0485C5.38834 31.3055 4.80268 31.1386 4.55966 30.6674C2.24007 26.1697 1.01815 21.1814 1.00045 16.1117C0.982759 11.042 2.16983 6.04531 4.45796 1.53151C4.69768 1.05861 5.28217 0.887598 5.74767 1.1414C6.21317 1.3952 6.38333 1.97765 6.14451 2.45101C4.01066 6.6805 2.90388 11.3587 2.92044 16.105C2.93701 20.8513 4.07643 25.5216 6.23975 29.7361C6.48186 30.2078 6.31578 30.7914 5.85206 31.0485Z"/>
</mask>
<path d="M5.85206 31.0485C5.38834 31.3055 4.80268 31.1386 4.55966 30.6674C2.24007 26.1697 1.01815 21.1814 1.00045 16.1117C0.982759 11.042 2.16983 6.04531 4.45796 1.53151C4.69768 1.05861 5.28217 0.887598 5.74767 1.1414C6.21317 1.3952 6.38333 1.97765 6.14451 2.45101C4.01066 6.6805 2.90388 11.3587 2.92044 16.105C2.93701 20.8513 4.07643 25.5216 6.23975 29.7361C6.48186 30.2078 6.31578 30.7914 5.85206 31.0485Z" fill="#D9D9D9"/>
<path d="M5.85206 31.0485C5.38834 31.3055 4.80268 31.1386 4.55966 30.6674C2.24007 26.1697 1.01815 21.1814 1.00045 16.1117C0.982759 11.042 2.16983 6.04531 4.45796 1.53151C4.69768 1.05861 5.28217 0.887598 5.74767 1.1414C6.21317 1.3952 6.38333 1.97765 6.14451 2.45101C4.01066 6.6805 2.90388 11.3587 2.92044 16.105C2.93701 20.8513 4.07643 25.5216 6.23975 29.7361C6.48186 30.2078 6.31578 30.7914 5.85206 31.0485Z" stroke="#F2C922" stroke-width="2" mask="url(#path-1-inside-1_4605_3162)"/>
</g>
<defs>
<filter id="filter0_f_4605_3162" x="0.600259" y="0.623926" width="6.15027" height="30.945" filterUnits="userSpaceOnUse" color-interpolation-filters="sRGB">
<feFlood flood-opacity="0" result="BackgroundImageFix"/>
<feBlend mode="normal" in="SourceGraphic" in2="BackgroundImageFix" result="shape"/>
<feGaussianBlur stdDeviation="0.2" result="effect1_foregroundBlur_4605_3162"/>
</filter>
</defs>
</svg>
