<svg width="64" height="64" viewBox="0 0 64 64" fill="none" xmlns="http://www.w3.org/2000/svg">
<rect x="0.000259399" width="64" height="64" rx="32" fill="#121C29"/>
<g clip-path="url(#clip0_4605_3275)">
<path d="M25.5717 33.7143C22.3951 33.7143 20.0003 35.1886 20.0003 37.1429V40.5714C20.0003 42.5257 22.3951 44 25.5717 44C28.7483 44 31.1431 42.5257 31.1431 40.5714V37.1429C31.1431 35.1886 28.7483 33.7143 25.5717 33.7143ZM25.5717 35.4286C27.9263 35.4286 29.4288 36.4443 29.4288 37.1429C29.4288 37.8414 27.9263 38.8571 25.5717 38.8571C23.2171 38.8571 21.7145 37.8414 21.7145 37.1429C21.7145 36.4443 23.2171 35.4286 25.5717 35.4286ZM25.5717 42.2857C23.2171 42.2857 21.7145 41.27 21.7145 40.5714V39.6569C22.7011 40.2277 24.0443 40.5714 25.5717 40.5714C27.0991 40.5714 28.4423 40.2277 29.4288 39.6569V40.5714C29.4288 41.27 27.9263 42.2857 25.5717 42.2857ZM38.4288 30.2857C35.2523 30.2857 32.8574 31.76 32.8574 33.7143V40.5714C32.8574 42.5257 35.2523 44 38.4288 44C41.6054 44 44.0003 42.5257 44.0003 40.5714V33.7143C44.0003 31.76 41.6054 30.2857 38.4288 30.2857ZM42.286 37.1429C42.286 37.8414 40.7834 38.8571 38.4288 38.8571C36.0743 38.8571 34.5717 37.8414 34.5717 37.1429V36.2283C35.5583 36.7991 36.9014 37.1429 38.4288 37.1429C39.9563 37.1429 41.2994 36.7991 42.286 36.2283V37.1429ZM38.4288 32C40.7834 32 42.286 33.0157 42.286 33.7143C42.286 34.4129 40.7834 35.4286 38.4288 35.4286C36.0743 35.4286 34.5717 34.4129 34.5717 33.7143C34.5717 33.0157 36.0743 32 38.4288 32ZM38.4288 42.2857C36.0743 42.2857 34.5717 41.27 34.5717 40.5714V39.6569C35.5583 40.2277 36.9014 40.5714 38.4288 40.5714C39.9563 40.5714 41.2994 40.2277 42.286 39.6569V40.5714C42.286 41.27 40.7834 42.2857 38.4288 42.2857ZM42.286 20.8571V25.1429C42.286 25.3702 42.1957 25.5882 42.0349 25.7489C41.8742 25.9097 41.6562 26 41.4288 26C41.2015 26 40.9835 25.9097 40.8227 25.7489C40.662 25.5882 40.5717 25.3702 40.5717 25.1429V22.9263L34.3205 29.1774C34.241 29.2571 34.1466 29.3203 34.0426 29.3634C33.9386 29.4065 33.8271 29.4287 33.7145 29.4287C33.602 29.4287 33.4905 29.4065 33.3865 29.3634C33.2825 29.3203 33.1881 29.2571 33.1085 29.1774L28.5717 24.6406L23.1777 30.0346C23.0981 30.1142 23.0036 30.1773 22.8997 30.2203C22.7957 30.2634 22.6842 30.2856 22.5717 30.2856C22.4591 30.2856 22.3477 30.2634 22.2437 30.2203C22.1397 30.1773 22.0453 30.1142 21.9657 30.0346C21.8861 29.955 21.823 29.8605 21.7799 29.7565C21.7368 29.6526 21.7147 29.5411 21.7147 29.4286C21.7147 29.316 21.7368 29.2046 21.7799 29.1006C21.823 28.9966 21.8861 28.9022 21.9657 28.8226L27.9657 22.8226C28.0452 22.7429 28.1397 22.6797 28.2437 22.6366C28.3476 22.5935 28.4591 22.5713 28.5717 22.5713C28.6843 22.5713 28.7957 22.5935 28.8997 22.6366C29.0037 22.6797 29.0982 22.7429 29.1777 22.8226L33.7145 27.3594L39.3597 21.7143H37.1431C36.9158 21.7143 36.6978 21.624 36.537 21.4632C36.3763 21.3025 36.286 21.0845 36.286 20.8571C36.286 20.6298 36.3763 20.4118 36.537 20.2511C36.6978 20.0903 36.9158 20 37.1431 20H41.4288C41.6562 20 41.8742 20.0903 42.0349 20.2511C42.1957 20.4118 42.286 20.6298 42.286 20.8571Z" fill="#F2C922"/>
</g>
<defs>
<clipPath id="clip0_4605_3275">
<rect width="24" height="24" fill="white" transform="translate(20.0003 20)"/>
</clipPath>
</defs>
</svg>
