<svg width="161" height="174" viewBox="0 0 161 174" fill="none" xmlns="http://www.w3.org/2000/svg">
<g filter="url(#filter0_ddif_8601_304)">
<path d="M35.0003 87L84.0003 87" stroke="#F2C922" stroke-width="2" stroke-linecap="round"/>
</g>
<g filter="url(#filter1_ddif_8601_304)">
<mask id="path-2-inside-1_8601_304" fill="white">
<path d="M87.8521 102.048C87.3883 102.306 86.8027 102.139 86.5597 101.667C84.2401 97.1697 83.0182 92.1814 83.0005 87.1117C82.9828 82.042 84.1698 77.0453 86.458 72.5315C86.6977 72.0586 87.2822 71.8876 87.7477 72.1414C88.2132 72.3952 88.3833 72.9776 88.1445 73.451C86.0107 77.6805 84.9039 82.3587 84.9204 87.105C84.937 91.8513 86.0764 96.5216 88.2397 100.736C88.4819 101.208 88.3158 101.791 87.8521 102.048Z"/>
</mask>
<path d="M87.8521 102.048C87.3883 102.306 86.8027 102.139 86.5597 101.667C84.2401 97.1697 83.0182 92.1814 83.0005 87.1117C82.9828 82.042 84.1698 77.0453 86.458 72.5315C86.6977 72.0586 87.2822 71.8876 87.7477 72.1414C88.2132 72.3952 88.3833 72.9776 88.1445 73.451C86.0107 77.6805 84.9039 82.3587 84.9204 87.105C84.937 91.8513 86.0764 96.5216 88.2397 100.736C88.4819 101.208 88.3158 101.791 87.8521 102.048Z" fill="#D9D9D9"/>
<path d="M87.8521 102.048C87.3883 102.306 86.8027 102.139 86.5597 101.667C84.2401 97.1697 83.0182 92.1814 83.0005 87.1117C82.9828 82.042 84.1698 77.0453 86.458 72.5315C86.6977 72.0586 87.2822 71.8876 87.7477 72.1414C88.2132 72.3952 88.3833 72.9776 88.1445 73.451C86.0107 77.6805 84.9039 82.3587 84.9204 87.105C84.937 91.8513 86.0764 96.5216 88.2397 100.736C88.4819 101.208 88.3158 101.791 87.8521 102.048Z" stroke="#F2C922" stroke-width="2" mask="url(#path-2-inside-1_8601_304)"/>
</g>
<defs>
<filter id="filter0_ddif_8601_304" x="-37.708" y="14.2917" width="194.417" height="145.417" filterUnits="userSpaceOnUse" color-interpolation-filters="sRGB">
<feFlood flood-opacity="0" result="BackgroundImageFix"/>
<feColorMatrix in="SourceAlpha" type="matrix" values="0 0 0 0 0 0 0 0 0 0 0 0 0 0 0 0 0 0 127 0" result="hardAlpha"/>
<feOffset/>
<feGaussianBlur stdDeviation="35.8541"/>
<feColorMatrix type="matrix" values="0 0 0 0 0.94902 0 0 0 0 0.788235 0 0 0 0 0.133333 0 0 0 0.5 0"/>
<feBlend mode="normal" in2="BackgroundImageFix" result="effect1_dropShadow_8601_304"/>
<feColorMatrix in="SourceAlpha" type="matrix" values="0 0 0 0 0 0 0 0 0 0 0 0 0 0 0 0 0 0 127 0" result="hardAlpha"/>
<feOffset/>
<feGaussianBlur stdDeviation="9.26148"/>
<feColorMatrix type="matrix" values="0 0 0 0 0.94902 0 0 0 0 0.788235 0 0 0 0 0.133333 0 0 0 0.7 0"/>
<feBlend mode="normal" in2="effect1_dropShadow_8601_304" result="effect2_dropShadow_8601_304"/>
<feBlend mode="normal" in="SourceGraphic" in2="effect2_dropShadow_8601_304" result="shape"/>
<feColorMatrix in="SourceAlpha" type="matrix" values="0 0 0 0 0 0 0 0 0 0 0 0 0 0 0 0 0 0 127 0" result="hardAlpha"/>
<feOffset/>
<feGaussianBlur stdDeviation="3.58541"/>
<feComposite in2="hardAlpha" operator="arithmetic" k2="-1" k3="1"/>
<feColorMatrix type="matrix" values="0 0 0 0 0.94902 0 0 0 0 0.788235 0 0 0 0 0.133333 0 0 0 0.5 0"/>
<feBlend mode="normal" in2="shape" result="effect3_innerShadow_8601_304"/>
<feGaussianBlur stdDeviation="0.2" result="effect4_foregroundBlur_8601_304"/>
</filter>
<filter id="filter1_ddif_8601_304" x="11.292" y="0.315643" width="148.767" height="173.562" filterUnits="userSpaceOnUse" color-interpolation-filters="sRGB">
<feFlood flood-opacity="0" result="BackgroundImageFix"/>
<feColorMatrix in="SourceAlpha" type="matrix" values="0 0 0 0 0 0 0 0 0 0 0 0 0 0 0 0 0 0 127 0" result="hardAlpha"/>
<feOffset/>
<feGaussianBlur stdDeviation="35.8541"/>
<feColorMatrix type="matrix" values="0 0 0 0 0.94902 0 0 0 0 0.788235 0 0 0 0 0.133333 0 0 0 0.5 0"/>
<feBlend mode="normal" in2="BackgroundImageFix" result="effect1_dropShadow_8601_304"/>
<feColorMatrix in="SourceAlpha" type="matrix" values="0 0 0 0 0 0 0 0 0 0 0 0 0 0 0 0 0 0 127 0" result="hardAlpha"/>
<feOffset/>
<feGaussianBlur stdDeviation="9.26148"/>
<feColorMatrix type="matrix" values="0 0 0 0 0.94902 0 0 0 0 0.788235 0 0 0 0 0.133333 0 0 0 0.7 0"/>
<feBlend mode="normal" in2="effect1_dropShadow_8601_304" result="effect2_dropShadow_8601_304"/>
<feBlend mode="normal" in="SourceGraphic" in2="effect2_dropShadow_8601_304" result="shape"/>
<feColorMatrix in="SourceAlpha" type="matrix" values="0 0 0 0 0 0 0 0 0 0 0 0 0 0 0 0 0 0 127 0" result="hardAlpha"/>
<feOffset/>
<feGaussianBlur stdDeviation="3.58541"/>
<feComposite in2="hardAlpha" operator="arithmetic" k2="-1" k3="1"/>
<feColorMatrix type="matrix" values="0 0 0 0 0.94902 0 0 0 0 0.788235 0 0 0 0 0.133333 0 0 0 0.5 0"/>
<feBlend mode="normal" in2="shape" result="effect3_innerShadow_8601_304"/>
<feGaussianBlur stdDeviation="0.2" result="effect4_foregroundBlur_8601_304"/>
</filter>
</defs>
</svg>
