<svg width="16" height="19" viewBox="0 0 16 19" fill="none" xmlns="http://www.w3.org/2000/svg">
<g clip-path="url(#clip0_4605_7818)">
<path fill-rule="evenodd" clip-rule="evenodd" d="M14.128 6.64343C14.253 6.76845 14.3232 6.93799 14.3232 7.11477C14.3232 7.29154 14.253 7.46108 14.128 7.5861L6.63334 15.0814C6.56524 15.1496 6.48438 15.2036 6.39539 15.2405C6.30639 15.2774 6.211 15.2963 6.11467 15.2963C6.01834 15.2963 5.92295 15.2774 5.83396 15.2405C5.74496 15.2036 5.66411 15.1496 5.59601 15.0814L1.87201 11.3574C1.81007 11.2955 1.76093 11.222 1.72741 11.141C1.69389 11.0601 1.67664 10.9734 1.67664 10.8858C1.67664 10.7982 1.69389 10.7114 1.72741 10.6305C1.76093 10.5496 1.81007 10.476 1.87201 10.4141C1.93395 10.3522 2.00748 10.303 2.08841 10.2695C2.16934 10.236 2.25608 10.2187 2.34367 10.2187C2.43127 10.2187 2.51801 10.236 2.59894 10.2695C2.67987 10.303 2.7534 10.3522 2.81534 10.4141L6.11534 13.7141L13.1847 6.64343C13.3097 6.51845 13.4792 6.44824 13.656 6.44824C13.8328 6.44824 14.003 6.51845 14.128 6.64343Z" fill="#F2C922"/>
</g>
<defs>
<clipPath id="clip0_4605_7818">
<rect width="16" height="16" fill="white" transform="translate(0 3)"/>
</clipPath>
</defs>
</svg>
